<?xml version="1.0" encoding="iso-8859-1"?>
<!-- Uploaded to: SVG Repo, www.svgrepo.com, Generator: SVG Repo Mixer Tools -->
<svg version="1.1" id="Layer_1" xmlns="http://www.w3.org/2000/svg" xmlns:xlink="http://www.w3.org/1999/xlink" 
	 viewBox="0 0 512 512" xml:space="preserve">
<rect x="223.992" y="307.237" style="fill:#F96232;" width="64.032" height="190.747"/>
<path style="fill:#FFDC64;" d="M304.6,14.021c33.248,0,60.201,26.952,60.201,60.201v161.37c0,39.273-31.848,71.121-71.135,71.121
	h-75.33c-39.287,0-71.135-31.848-71.135-71.121V74.221c0-33.248,26.952-60.201,60.201-60.201H304.6V14.021z"/>
<path d="M201.513,115.59c-0.91,0-1.837-0.097-2.734-0.279s-1.781-0.449-2.636-0.799c-0.841-0.351-1.655-0.785-2.412-1.29
	c-0.771-0.505-1.486-1.094-2.133-1.739c-0.645-0.645-1.234-1.36-1.737-2.131c-0.505-0.757-0.939-1.57-1.29-2.426
	c-0.351-0.841-0.631-1.723-0.813-2.622c-0.182-0.897-0.266-1.823-0.266-2.734c0-0.91,0.086-1.837,0.266-2.748
	c0.182-0.883,0.447-1.767,0.798-2.621c0.351-0.843,0.787-1.656,1.29-2.413c0.519-0.771,1.108-1.486,1.753-2.131
	c0.646-0.645,1.361-1.234,2.133-1.753c0.757-0.505,1.57-0.939,2.412-1.29c0.855-0.351,1.739-0.617,2.636-0.799
	c1.809-0.365,3.66-0.365,5.468,0c0.897,0.182,1.781,0.449,2.622,0.799c0.854,0.351,1.667,0.785,2.424,1.29
	c0.773,0.519,1.488,1.108,2.133,1.753c0.645,0.645,1.234,1.36,1.739,2.131c0.503,0.757,0.939,1.57,1.29,2.413
	c0.351,0.854,0.63,1.737,0.798,2.621c0.182,0.911,0.28,1.838,0.28,2.748c0,0.911-0.098,1.838-0.28,2.734
	c-0.168,0.899-0.447,1.782-0.798,2.622c-0.351,0.855-0.787,1.669-1.29,2.426c-0.505,0.771-1.094,1.486-1.739,2.131
	s-1.36,1.234-2.133,1.739c-0.757,0.505-1.57,0.939-2.424,1.29c-0.843,0.351-1.725,0.617-2.622,0.799S202.424,115.59,201.513,115.59z
	"/>
<path d="M256,115.59c-0.911,0-1.838-0.097-2.734-0.279c-0.896-0.182-1.781-0.449-2.636-0.799c-0.843-0.351-1.655-0.785-2.412-1.29
	c-0.773-0.505-1.488-1.094-2.133-1.739s-1.234-1.36-1.739-2.131c-0.503-0.757-0.939-1.57-1.29-2.426
	c-0.351-0.841-0.631-1.723-0.798-2.622c-0.184-0.897-0.28-1.823-0.28-2.734c0-0.91,0.097-1.837,0.28-2.748
	c0.167-0.883,0.447-1.767,0.798-2.621c0.351-0.843,0.787-1.656,1.29-2.413c0.505-0.771,1.094-1.486,1.739-2.131
	c0.645-0.645,1.36-1.234,2.133-1.753c0.757-0.505,1.569-0.939,2.412-1.29c0.855-0.351,1.739-0.617,2.636-0.799
	c1.795-0.365,3.66-0.365,5.468,0c0.897,0.182,1.781,0.449,2.621,0.799c0.855,0.351,1.669,0.785,2.426,1.29
	c0.771,0.519,1.486,1.108,2.131,1.753c0.646,0.645,1.235,1.36,1.739,2.131c0.505,0.757,0.939,1.57,1.29,2.413
	c0.351,0.854,0.631,1.737,0.799,2.621c0.182,0.911,0.28,1.838,0.28,2.748c0,0.911-0.098,1.838-0.28,2.734
	c-0.168,0.899-0.449,1.782-0.799,2.622c-0.351,0.855-0.785,1.669-1.29,2.426c-0.503,0.771-1.092,1.486-1.739,2.131
	c-0.645,0.645-1.36,1.234-2.131,1.739c-0.757,0.505-1.57,0.939-2.426,1.29c-0.841,0.351-1.723,0.617-2.621,0.799
	C257.837,115.491,256.911,115.59,256,115.59z"/>
<path d="M310.487,115.59c-0.91,0-1.837-0.097-2.733-0.279c-0.899-0.182-1.782-0.449-2.622-0.799
	c-0.855-0.351-1.669-0.785-2.426-1.29c-0.771-0.505-1.486-1.094-2.131-1.739s-1.234-1.36-1.739-2.131
	c-0.505-0.757-0.939-1.57-1.29-2.426c-0.351-0.841-0.631-1.723-0.799-2.622c-0.182-0.897-0.28-1.823-0.28-2.734
	c0-0.91,0.098-1.837,0.28-2.748c0.168-0.883,0.449-1.767,0.799-2.621c0.351-0.843,0.785-1.656,1.29-2.413
	c0.505-0.771,1.094-1.486,1.739-2.131c0.645-0.645,1.36-1.234,2.131-1.753c0.757-0.505,1.57-0.939,2.426-1.29
	c0.841-0.337,1.723-0.617,2.622-0.787c1.809-0.365,3.658-0.379,5.467,0c0.899,0.168,1.782,0.449,2.636,0.787
	c0.843,0.351,1.656,0.785,2.413,1.29c0.771,0.519,1.486,1.108,2.131,1.753c0.645,0.645,1.234,1.36,1.739,2.131
	c0.505,0.757,0.939,1.57,1.29,2.413c0.351,0.854,0.617,1.737,0.799,2.621c0.182,0.911,0.279,1.838,0.279,2.748
	c0,0.911-0.097,1.838-0.279,2.734c-0.182,0.899-0.449,1.782-0.799,2.622c-0.351,0.855-0.785,1.669-1.29,2.426
	c-0.505,0.771-1.094,1.486-1.739,2.131s-1.36,1.234-2.131,1.739c-0.757,0.505-1.57,0.939-2.413,1.29
	c-0.854,0.351-1.737,0.617-2.636,0.799C312.324,115.491,311.399,115.59,310.487,115.59z"/>
<g>
	<circle style="fill:#7BFFCD;" cx="411.514" cy="179.488" r="38.55"/>
	<circle style="fill:#7BFFCD;" cx="100.491" cy="179.488" r="38.55"/>
</g>
<path d="M464.085,179.495c0-28.989-23.583-52.572-52.57-52.572c-12.351,0-23.712,4.292-32.694,11.448V74.224
	C378.82,33.295,345.525,0,304.598,0h-97.196c-40.926,0-74.222,33.295-74.222,74.222v64.148
	c-8.982-7.157-20.344-11.448-32.694-11.448c-28.988,0-52.57,23.583-52.57,52.572c0,23.782,15.878,43.915,37.587,50.383v5.715
	c0,70.424,55.103,128.212,124.462,132.546v129.841c0,7.743,6.279,14.021,14.021,14.021h64.03c7.743,0,14.021-6.279,14.021-14.021
	V368.138c69.358-4.334,124.462-62.122,124.462-132.546v-5.715C448.207,223.409,464.085,203.277,464.085,179.495z M238.006,321.256
	h35.987v19.111h-35.987V321.256z M293.664,292.69h-75.33c-31.492,0-57.112-25.616-57.112-57.099v-42.587h189.554v42.587
	C350.778,267.076,325.156,292.69,293.664,292.69z M187.491,32.562V60.7c0,7.743,6.279,14.021,14.021,14.021
	c7.743,0,14.021-6.279,14.021-14.021V28.043h26.444V60.7c0,7.743,6.279,14.021,14.021,14.021s14.021-6.279,14.021-14.021V28.043
	h26.444V60.7c0,7.743,6.279,14.021,14.021,14.021s14.021-6.279,14.021-14.021V32.562c15.523,7.45,26.268,23.323,26.268,41.66v90.74
	H161.222v-90.74C161.222,55.884,171.967,40.011,187.491,32.562z M75.958,179.495c0-13.525,11.004-24.529,24.528-24.529
	c13.525,0,24.529,11.004,24.529,24.529s-11.004,24.528-24.529,24.528C86.962,204.023,75.958,193.019,75.958,179.495z
	 M113.544,235.592v-5.171c7.271-1.865,13.93-5.259,19.636-9.805v14.973c0,44.123,33.744,80.507,76.784,84.726v19.686
	C156.085,335.72,113.544,290.546,113.544,235.592z M238.006,483.957V368.41h35.987v115.548H238.006z M302.036,340.002v-19.686
	c43.04-4.219,76.784-40.603,76.784-84.726v-14.973c5.705,4.544,12.364,7.94,19.636,9.805v5.171
	C398.456,290.546,355.915,335.72,302.036,340.002z M411.514,204.023c-13.525,0-24.529-11.004-24.529-24.528
	c0-13.525,11.004-24.529,24.529-24.529c13.525,0,24.528,11.004,24.528,24.529C436.042,193.019,425.039,204.023,411.514,204.023z"/>
</svg>